<svg width="187" height="192" viewBox="0 0 187 192" fill="none" xmlns="http://www.w3.org/2000/svg">
<mask id="mask0_178_2459" style="mask-type:alpha" maskUnits="userSpaceOnUse" x="0" y="0" width="187" height="187">
<rect width="187" height="187" fill="#D9D9D9"/>
</mask>
<g mask="url(#mask0_178_2459)">
<path fill-rule="evenodd" clip-rule="evenodd" d="M110.473 21.459C121.612 21.459 110.473 73.2672 134.384 95.6459C130.297 80.3181 125.126 49.6626 137.143 49.6623C152.164 49.6623 175.156 84.9164 175.156 122.929C175.156 153.34 146.544 164.213 132.238 165.848H57.1315C38.4316 165.847 18.6088 147.281 12.9873 126.302C4.80228 95.7549 36.4885 49.6628 45.1758 49.6623C59.994 49.6623 45.1759 85.5295 59.0744 95.6459C60.5459 38.5038 91.2628 21.4591 110.473 21.459ZM78.9043 107.042C72.4863 106.593 66.5943 116.087 65.7439 128.248C64.8935 140.408 69.4069 150.63 75.8249 151.079C82.2428 151.528 88.135 142.033 88.9853 129.873C89.8357 117.713 85.3222 107.491 78.9043 107.042ZM112.626 107.042C106.208 106.593 100.316 116.087 99.4652 128.248C98.6148 140.408 103.128 150.63 109.546 151.079C115.964 151.528 121.856 142.033 122.707 129.873C123.557 117.713 119.044 107.491 112.626 107.042Z" fill="white"/>
<path d="M114.18 133.561C113.924 140.902 110.575 146.744 106.7 146.609C102.825 146.473 99.8921 140.412 100.149 133.071C100.405 125.729 103.754 119.887 107.629 120.023C111.503 120.158 114.436 126.219 114.18 133.561Z" fill="white"/>
<path d="M80.6211 133.561C80.3647 140.902 77.0158 146.744 73.1411 146.609C69.2664 146.473 66.3331 140.412 66.5895 133.071C66.8459 125.729 70.1948 119.887 74.0695 120.023C77.9442 120.158 80.8774 126.219 80.6211 133.561Z" fill="white"/>
</g>
<path d="M44.8833 191H40.8491V179.097H44.8833V183.795C44.9995 183.568 45.2707 183.455 45.6968 183.455H48.1787V179.097H52.2046V191H48.1787V186.227C48.1123 186.36 48.0127 186.448 47.8799 186.493C47.7526 186.537 47.5811 186.559 47.3652 186.559H44.8833V191Z" fill="white"/>
<path d="M55.998 191.208C55.5498 191.208 55.132 191.152 54.7446 191.042C54.3628 190.931 54.0169 190.765 53.707 190.543C53.3971 190.322 53.1536 190.023 52.9766 189.647C52.7995 189.265 52.7109 188.825 52.7109 188.327C52.7109 187.829 52.8078 187.384 53.0015 186.991C53.2007 186.598 53.458 186.28 53.7734 186.036C54.0889 185.793 54.4652 185.591 54.9023 185.43C55.3451 185.27 55.7905 185.159 56.2388 185.098C56.687 185.032 57.1602 184.999 57.6582 184.999C58.2669 184.999 58.8507 185.043 59.4097 185.131V184.982C59.1606 184.484 58.4855 184.235 57.3843 184.235C56.7866 184.235 56.1724 184.343 55.5415 184.559C54.9162 184.769 54.3766 185.04 53.9229 185.372H53.6987V181.512C54.2466 181.252 54.8885 181.036 55.6245 180.865C56.366 180.688 57.1297 180.599 57.9155 180.599C59.5812 180.599 60.901 181.045 61.875 181.936C62.849 182.821 63.3359 184.011 63.3359 185.505V191H59.4761V190.676L59.9741 186.526H59.7832C59.7334 188.097 59.3792 189.271 58.7207 190.045C58.0622 190.82 57.1546 191.208 55.998 191.208ZM57.4009 188.369C57.8879 188.369 58.2808 188.194 58.5796 187.846C58.884 187.492 59.0583 187.046 59.1025 186.509H58.3555C57.6637 186.509 57.1685 186.617 56.8696 186.833C56.5708 187.049 56.4214 187.309 56.4214 187.613C56.4214 187.857 56.5155 188.045 56.7036 188.178C56.8918 188.305 57.1242 188.369 57.4009 188.369Z" fill="white"/>
<path d="M71.1968 191.208C70.8094 191.208 70.4497 191.147 70.1177 191.025C69.7856 190.909 69.4619 190.718 69.1465 190.452C68.8366 190.181 68.5627 189.796 68.3247 189.298C68.0923 188.795 67.918 188.194 67.8018 187.497H67.6606L68.0176 191H64.0249V178.25H67.8682V182.16L67.4946 184.625H67.6938C67.7215 184.127 67.7852 183.676 67.8848 183.272C67.9844 182.862 68.1034 182.522 68.2417 182.251C68.3856 181.974 68.5544 181.734 68.748 181.529C68.9417 181.324 69.1354 181.164 69.3291 181.047C69.5228 180.931 69.7358 180.84 69.9683 180.773C70.2007 180.701 70.411 180.654 70.5991 180.632C70.7873 180.61 70.9865 180.599 71.1968 180.599C72.0269 180.599 72.7518 180.843 73.3716 181.33C73.9969 181.817 74.4645 182.458 74.7744 183.255C75.0898 184.052 75.2476 184.94 75.2476 185.92C75.2476 186.899 75.0926 187.785 74.7827 188.576C74.4728 189.368 74.0052 190.004 73.3799 190.485C72.7601 190.967 72.0324 191.208 71.1968 191.208ZM69.4785 187.53C70.0928 187.53 70.5908 187.4 70.9727 187.14C71.36 186.875 71.5537 186.49 71.5537 185.986C71.5537 185.472 71.3628 185.084 70.981 184.824C70.5991 184.564 70.0983 184.434 69.4785 184.434C68.8587 184.434 68.3551 184.564 67.9678 184.824C67.5804 185.084 67.3867 185.472 67.3867 185.986C67.3867 186.49 67.5804 186.875 67.9678 187.14C68.3551 187.4 68.8587 187.53 69.4785 187.53Z" fill="white"/>
<path d="M77.7876 182.209C77.1125 182.209 76.5646 182.01 76.144 181.612C75.729 181.208 75.5215 180.715 75.5215 180.134C75.5215 179.553 75.7318 179.061 76.1523 178.657C76.5784 178.247 77.1235 178.042 77.7876 178.042C78.4461 178.042 78.9829 178.247 79.3979 178.657C79.8185 179.061 80.0288 179.553 80.0288 180.134C80.0288 180.721 79.8213 181.213 79.4062 181.612C78.9967 182.01 78.4572 182.209 77.7876 182.209ZM79.7881 191H75.7622V181.886H75.895C76.3654 182.34 76.9963 182.566 77.7876 182.566C78.5623 182.566 79.1849 182.34 79.6553 181.886H79.7881V191Z" fill="white"/>
<path d="M87.2422 190.353C86.6224 190.923 85.7951 191.208 84.7603 191.208C83.7254 191.208 82.9202 190.892 82.3447 190.261C81.7692 189.625 81.4814 188.784 81.4814 187.738V183.197H80.394V180.923C81.1079 180.923 81.6309 180.787 81.9629 180.516C82.3005 180.239 82.4692 179.766 82.4692 179.097H85.4907V180.798H87.2422V183.521L85.4907 183.247V186.493C85.4907 186.869 85.5544 187.16 85.6816 187.364C85.8089 187.569 86.0303 187.671 86.3457 187.671C86.6169 187.671 86.8465 187.528 87.0347 187.24H87.2422V190.353Z" fill="white"/>
<path d="M97.7095 191.208C96.7189 191.208 95.8114 191.05 94.9868 190.734C94.1623 190.413 93.4705 189.976 92.9116 189.423C92.3582 188.869 91.9266 188.216 91.6167 187.464C91.3123 186.706 91.1602 185.895 91.1602 185.032C91.1602 184.185 91.3123 183.388 91.6167 182.641C91.9266 181.894 92.3582 181.244 92.9116 180.69C93.465 180.137 94.154 179.7 94.9785 179.379C95.8086 179.058 96.7189 178.897 97.7095 178.897C98.4676 178.897 99.1732 179.003 99.8262 179.213C100.485 179.423 101.002 179.658 101.378 179.918V184.525H101.129C100.543 183.939 99.9867 183.538 99.4609 183.322C98.9408 183.1 98.3459 182.99 97.6763 182.99C96.8241 182.99 96.1572 183.172 95.6758 183.538C95.1943 183.903 94.9536 184.406 94.9536 185.048C94.9536 185.69 95.1971 186.202 95.6841 186.584C96.1711 186.966 96.8351 187.157 97.6763 187.157C98.3459 187.157 98.9435 187.049 99.4692 186.833C99.995 186.612 100.548 186.21 101.129 185.629H101.378V190.187C101.002 190.447 100.485 190.682 99.8262 190.892C99.1732 191.102 98.4676 191.208 97.7095 191.208Z" fill="white"/>
<path d="M107.546 191.208C106.694 191.208 105.911 191.069 105.197 190.792C104.483 190.516 103.885 190.139 103.404 189.664C102.922 189.182 102.549 188.62 102.283 187.979C102.018 187.337 101.885 186.65 101.885 185.92C101.885 185.339 101.968 184.783 102.134 184.251C102.305 183.715 102.554 183.225 102.881 182.782C103.207 182.34 103.597 181.955 104.051 181.628C104.505 181.302 105.031 181.05 105.628 180.873C106.226 180.69 106.865 180.599 107.546 180.599C108.382 180.599 109.153 180.74 109.862 181.022C110.576 181.305 111.173 181.687 111.655 182.168C112.136 182.644 112.513 183.208 112.784 183.861C113.055 184.509 113.19 185.195 113.19 185.92C113.19 186.65 113.058 187.337 112.792 187.979C112.532 188.62 112.164 189.182 111.688 189.664C111.212 190.139 110.617 190.516 109.903 190.792C109.189 191.069 108.404 191.208 107.546 191.208ZM106.052 187.074C106.434 187.334 106.932 187.464 107.546 187.464C108.16 187.464 108.661 187.334 109.048 187.074C109.441 186.814 109.638 186.429 109.638 185.92C109.638 185.411 109.441 185.026 109.048 184.766C108.661 184.5 108.16 184.368 107.546 184.368C106.943 184.368 106.447 184.5 106.06 184.766C105.673 185.026 105.479 185.411 105.479 185.92C105.479 186.429 105.67 186.814 106.052 187.074Z" fill="white"/>
<path d="M117.673 191H113.697V180.798H117.723L117.083 186.601H117.25C117.482 184.382 117.872 182.826 118.42 181.936C118.973 181.045 119.842 180.599 121.026 180.599C122.039 180.599 122.817 180.962 123.359 181.687C123.901 182.411 124.172 183.579 124.172 185.189V191H120.188V187.381C120.188 187.115 120.185 186.897 120.18 186.725C120.174 186.548 120.16 186.349 120.138 186.127C120.116 185.901 120.08 185.718 120.03 185.58C119.986 185.436 119.925 185.297 119.848 185.165C119.77 185.032 119.668 184.935 119.541 184.874C119.413 184.808 119.267 184.774 119.101 184.774C118.89 184.774 118.705 184.816 118.544 184.899C118.389 184.982 118.259 185.115 118.154 185.297C118.049 185.474 117.963 185.671 117.897 185.887C117.836 186.103 117.789 186.382 117.756 186.725C117.723 187.063 117.701 187.392 117.689 187.713C117.678 188.034 117.673 188.427 117.673 188.892V191Z" fill="white"/>
<path d="M131.104 190.353C130.484 190.923 129.656 191.208 128.622 191.208C127.587 191.208 126.782 190.892 126.206 190.261C125.631 189.625 125.343 188.784 125.343 187.738V183.197H124.255V180.923C124.969 180.923 125.492 180.787 125.824 180.516C126.162 180.239 126.331 179.766 126.331 179.097H129.352V180.798H131.104V183.521L129.352 183.247V186.493C129.352 186.869 129.416 187.16 129.543 187.364C129.67 187.569 129.892 187.671 130.207 187.671C130.478 187.671 130.708 187.528 130.896 187.24H131.104V190.353Z" fill="white"/>
<path d="M135.769 191H131.792V180.798H135.818L135.179 186.601H135.345C135.439 185.433 135.583 184.459 135.777 183.679C135.971 182.898 136.225 182.284 136.541 181.836C136.861 181.382 137.221 181.064 137.62 180.881C138.024 180.693 138.508 180.599 139.072 180.599V185.239H138.848C138.549 184.94 138.176 184.791 137.728 184.791C137.124 184.791 136.646 185.059 136.292 185.596C135.943 186.133 135.769 186.949 135.769 188.045V191Z" fill="white"/>
<path d="M145.065 191.208C144.213 191.208 143.43 191.069 142.716 190.792C142.002 190.516 141.405 190.139 140.923 189.664C140.442 189.182 140.068 188.62 139.803 187.979C139.537 187.337 139.404 186.65 139.404 185.92C139.404 185.339 139.487 184.783 139.653 184.251C139.825 183.715 140.074 183.225 140.4 182.782C140.727 182.34 141.117 181.955 141.571 181.628C142.025 181.302 142.55 181.05 143.148 180.873C143.746 180.69 144.385 180.599 145.065 180.599C145.901 180.599 146.673 180.74 147.381 181.022C148.095 181.305 148.693 181.687 149.174 182.168C149.656 182.644 150.032 183.208 150.303 183.861C150.574 184.509 150.71 185.195 150.71 185.92C150.71 186.65 150.577 187.337 150.312 187.979C150.051 188.62 149.683 189.182 149.208 189.664C148.732 190.139 148.137 190.516 147.423 190.792C146.709 191.069 145.923 191.208 145.065 191.208ZM143.571 187.074C143.953 187.334 144.451 187.464 145.065 187.464C145.68 187.464 146.181 187.334 146.568 187.074C146.961 186.814 147.157 186.429 147.157 185.92C147.157 185.411 146.961 185.026 146.568 184.766C146.181 184.5 145.68 184.368 145.065 184.368C144.462 184.368 143.967 184.5 143.58 184.766C143.192 185.026 142.999 185.411 142.999 185.92C142.999 186.429 143.189 186.814 143.571 187.074Z" fill="white"/>
<path d="M155.226 191H151.216V178.25H155.226V191Z" fill="white"/>
</svg>
