<svg width="356" height="250" viewBox="0 0 356 250" fill="none" xmlns="http://www.w3.org/2000/svg">
<circle opacity="0.05" cx="25" cy="25" r="25" fill="white"/>
<circle opacity="0.05" cx="76" cy="25" r="25" fill="white"/>
<circle cx="127" cy="25" r="25" fill="#3D3D3D"/>
<circle cx="178" cy="25" r="25" fill="#3D3D3D"/>
<circle cx="229" cy="25" r="25" fill="#3D3D3D"/>
<circle cx="280" cy="25" r="25" fill="#3D3D3D"/>
<circle cx="331" cy="25" r="25" fill="#3D3D3D"/>
<circle cx="25" cy="75" r="25" fill="#3D3D3D"/>
<circle cx="76" cy="75" r="25" fill="#3D3D3D"/>
<circle cx="127" cy="75" r="25" fill="#3D3D3D"/>
<circle cx="178" cy="75" r="25" fill="#3D3D3D"/>
<circle cx="229" cy="75" r="25" fill="#3D3D3D"/>
<circle cx="280" cy="75" r="25" fill="#3D3D3D"/>
<circle cx="331" cy="75" r="25" fill="#3D3D3D"/>
<circle cx="25" cy="125" r="25" fill="#3D3D3D"/>
<circle cx="76" cy="125" r="25" fill="#3D3D3D"/>
<circle cx="127" cy="125" r="25" fill="#3D3D3D"/>
<circle cx="178" cy="125" r="25" fill="#3D3D3D"/>
<circle cx="229" cy="125" r="25" fill="#B488DA"/>
<circle cx="280" cy="125" r="25" fill="#CA5555"/>
<circle cx="331" cy="125" r="25" fill="#B488DA"/>
<circle cx="25" cy="175" r="25" fill="#B488DA"/>
<circle cx="76" cy="175" r="25" fill="white"/>
<circle cx="127" cy="175" r="25" fill="#CB5B84"/>
<circle cx="178" cy="175" r="25" fill="#CB5B84"/>
<circle cx="229" cy="175" r="25" fill="#3D3D3D"/>
<circle cx="280" cy="175" r="25" fill="#3D3D3D"/>
<circle cx="331" cy="175" r="25" fill="#3D3D3D"/>
<circle cx="25" cy="225" r="25" fill="#3D3D3D"/>
<circle cx="76" cy="225" r="25" fill="#3D3D3D"/>
<circle opacity="0.05" cx="127" cy="225" r="25" fill="white"/>
<circle opacity="0.05" cx="178" cy="225" r="25" fill="white"/>
<circle opacity="0.05" cx="229" cy="225" r="25" fill="white"/>
<circle opacity="0.05" cx="280" cy="225" r="25" fill="white"/>
<circle opacity="0.05" cx="331" cy="225" r="25" fill="white"/>
</svg>
