<svg width="52" height="52" viewBox="0 0 52 52" fill="none" xmlns="http://www.w3.org/2000/svg">
<rect opacity="0.1" width="52" height="52" rx="26" fill="white" fill-opacity="0.5"/>
<g opacity="0.4">
<path fill-rule="evenodd" clip-rule="evenodd" d="M26 17.25C26.6904 17.25 27.25 17.8096 27.25 18.5V24.75H33.5C34.1904 24.75 34.75 25.3096 34.75 26C34.75 26.6904 34.1904 27.25 33.5 27.25H27.25V33.5C27.25 34.1904 26.6904 34.75 26 34.75C25.3096 34.75 24.75 34.1904 24.75 33.5V27.25H18.5C17.8096 27.25 17.25 26.6904 17.25 26C17.25 25.3096 17.8096 24.75 18.5 24.75H24.75V18.5C24.75 17.8096 25.3096 17.25 26 17.25Z" fill="white"/>
</g>
</svg>
