<svg width="164" height="170" viewBox="0 0 164 170" fill="none" xmlns="http://www.w3.org/2000/svg">
<mask id="mask0_178_2459" style="mask-type:alpha" maskUnits="userSpaceOnUse" x="-12" y="-22" width="188" height="188">
<rect x="-11.6664" y="-21.4908" width="187.277" height="187.277" fill="#D9D9D9"/>
</mask>
<g mask="url(#mask0_178_2459)">
<path fill-rule="evenodd" clip-rule="evenodd" d="M98.9697 0C110.126 0 98.9697 51.885 122.917 74.2968C118.823 58.9463 113.645 28.2454 125.68 28.2451C140.723 28.2451 163.749 63.5514 163.749 101.621C163.749 132.076 135.095 142.965 120.768 144.602H45.5497C26.8221 144.602 6.96992 126.008 1.34007 104.998C-6.85703 74.406 24.8761 28.2456 33.5763 28.2451C48.4164 28.2451 33.5764 64.1654 47.4955 74.2968C48.9692 17.07 79.7316 0.000102366 98.9697 0ZM67.3547 85.7096C60.9273 85.2601 55.0265 94.7685 54.1748 106.947C53.3232 119.125 57.8433 129.362 64.2708 129.812C70.6983 130.261 76.5991 120.753 77.4508 108.575C78.3023 96.3964 73.7822 86.1592 67.3547 85.7096ZM101.126 85.7096C94.6986 85.2601 88.7978 94.7685 87.9461 106.947C87.0945 119.125 91.6146 129.362 98.0421 129.812C104.47 130.261 110.37 120.753 111.222 108.575C112.074 96.3964 107.553 86.1591 101.126 85.7096Z" fill="white"/>
<path d="M102.683 112.268C102.426 119.62 99.0722 125.471 95.1917 125.335C91.3113 125.2 88.3737 119.129 88.6305 111.777C88.8872 104.425 92.2411 98.5741 96.1215 98.7096C100.002 98.8451 102.94 104.915 102.683 112.268Z" fill="white"/>
<path d="M69.0741 112.268C68.8173 119.62 65.4635 125.471 61.583 125.335C57.7026 125.2 54.765 119.129 55.0217 111.777C55.2785 104.425 58.6323 98.5741 62.5128 98.7096C66.3932 98.8451 69.3308 104.915 69.0741 112.268Z" fill="white"/>
</g>
<path d="M33.2834 169.792H29.2432V157.871H33.2834V162.576C33.3998 162.349 33.6713 162.236 34.0981 162.236H36.5837V157.871H40.6155V169.792H36.5837V165.012C36.5172 165.145 36.4174 165.234 36.2844 165.278C36.1569 165.323 35.9851 165.345 35.769 165.345H33.2834V169.792Z" fill="white"/>
<path d="M44.4146 170C43.9657 170 43.5473 169.945 43.1593 169.834C42.7769 169.723 42.4305 169.557 42.1202 169.335C41.8098 169.113 41.566 168.814 41.3886 168.437C41.2113 168.055 41.1226 167.614 41.1226 167.115C41.1226 166.617 41.2196 166.17 41.4136 165.777C41.6131 165.383 41.8708 165.065 42.1867 164.821C42.5026 164.577 42.8794 164.375 43.3173 164.214C43.7606 164.053 44.2068 163.943 44.6557 163.882C45.1046 163.815 45.5784 163.782 46.0772 163.782C46.6868 163.782 47.2715 163.826 47.8313 163.915V163.765C47.5819 163.266 46.9057 163.017 45.8029 163.017C45.2043 163.017 44.5892 163.125 43.9574 163.341C43.3311 163.552 42.7908 163.823 42.3363 164.156H42.1119V160.29C42.6605 160.03 43.3034 159.814 44.0405 159.642C44.7831 159.465 45.5479 159.376 46.3349 159.376C48.0031 159.376 49.3248 159.822 50.3002 160.714C51.2756 161.601 51.7633 162.793 51.7633 164.289V169.792H47.8978V169.468L48.3965 165.311H48.2053C48.1555 166.885 47.8008 168.06 47.1413 168.836C46.4818 169.612 45.5729 170 44.4146 170ZM45.8195 167.157C46.3072 167.157 46.7007 166.982 47 166.633C47.3048 166.279 47.4793 165.832 47.5237 165.295H46.7755C46.0827 165.295 45.5867 165.403 45.2875 165.619C44.9882 165.835 44.8386 166.096 44.8386 166.4C44.8386 166.644 44.9328 166.833 45.1212 166.966C45.3096 167.093 45.5424 167.157 45.8195 167.157Z" fill="white"/>
<path d="M59.6358 170C59.2479 170 58.8877 169.939 58.5551 169.817C58.2226 169.701 57.8984 169.51 57.5825 169.244C57.2721 168.972 56.9978 168.587 56.7595 168.088C56.5267 167.584 56.3522 166.982 56.2358 166.284H56.0945L56.4519 169.792H52.4533V157.023H56.3023V160.939L55.9282 163.408H56.1277C56.1554 162.909 56.2192 162.457 56.3189 162.053C56.4187 161.643 56.5378 161.302 56.6764 161.03C56.8205 160.753 56.9895 160.512 57.1835 160.307C57.3774 160.102 57.5714 159.941 57.7654 159.825C57.9594 159.708 58.1727 159.617 58.4055 159.55C58.6383 159.478 58.8489 159.431 59.0373 159.409C59.2257 159.387 59.4252 159.376 59.6358 159.376C60.4671 159.376 61.1931 159.62 61.8139 160.107C62.4401 160.595 62.9084 161.238 63.2188 162.036C63.5347 162.834 63.6926 163.724 63.6926 164.705C63.6926 165.686 63.5374 166.572 63.2271 167.365C62.9167 168.157 62.4484 168.795 61.8222 169.277C61.2015 169.759 60.4727 170 59.6358 170ZM57.915 166.317C58.5302 166.317 59.029 166.187 59.4114 165.927C59.7993 165.661 59.9933 165.275 59.9933 164.771C59.9933 164.256 59.8021 163.868 59.4197 163.607C59.0373 163.347 58.5357 163.217 57.915 163.217C57.2943 163.217 56.79 163.347 56.402 163.607C56.0141 163.868 55.8201 164.256 55.8201 164.771C55.8201 165.275 56.0141 165.661 56.402 165.927C56.79 166.187 57.2943 166.317 57.915 166.317Z" fill="white"/>
<path d="M66.2364 160.989C65.5603 160.989 65.0116 160.789 64.5904 160.39C64.1748 159.986 63.9669 159.492 63.9669 158.91C63.9669 158.328 64.1775 157.835 64.5987 157.431C65.0255 157.021 65.5714 156.815 66.2364 156.815C66.8959 156.815 67.4335 157.021 67.8492 157.431C68.2704 157.835 68.4809 158.328 68.4809 158.91C68.4809 159.498 68.2731 159.991 67.8575 160.39C67.4474 160.789 66.907 160.989 66.2364 160.989ZM68.2399 169.792H64.208V160.664H64.341C64.8121 161.119 65.4439 161.346 66.2364 161.346C67.0123 161.346 67.6358 161.119 68.1069 160.664H68.2399V169.792Z" fill="white"/>
<path d="M75.705 169.144C75.0843 169.715 74.2558 170 73.2194 170C72.183 170 71.3767 169.684 70.8003 169.052C70.2239 168.415 69.9357 167.573 69.9357 166.525V161.978H68.8467V159.7C69.5616 159.7 70.0854 159.564 70.4179 159.293C70.756 159.016 70.925 158.542 70.925 157.871H73.951V159.575H75.705V162.302L73.951 162.028V165.278C73.951 165.655 74.0147 165.946 74.1422 166.151C74.2696 166.356 74.4913 166.459 74.8072 166.459C75.0788 166.459 75.3088 166.315 75.4972 166.026H75.705V169.144Z" fill="white"/>
<path d="M86.1878 170C85.1958 170 84.2869 169.842 83.4611 169.526C82.6354 169.205 81.9426 168.767 81.3828 168.213C80.8286 167.658 80.3964 167.005 80.086 166.251C79.7812 165.492 79.6288 164.68 79.6288 163.815C79.6288 162.967 79.7812 162.169 80.086 161.421C80.3964 160.673 80.8286 160.022 81.3828 159.467C81.9371 158.913 82.627 158.475 83.4528 158.154C84.2841 157.832 85.1958 157.672 86.1878 157.672C86.9471 157.672 87.6537 157.777 88.3076 157.988C88.9671 158.198 89.4853 158.434 89.8622 158.694V163.308H89.6128C89.0253 162.721 88.4684 162.319 87.9419 162.103C87.4209 161.881 86.8251 161.77 86.1546 161.77C85.3011 161.77 84.6333 161.953 84.1511 162.319C83.6689 162.684 83.4279 163.189 83.4279 163.832C83.4279 164.475 83.6717 164.987 84.1594 165.37C84.6471 165.752 85.3122 165.943 86.1546 165.943C86.8251 165.943 87.4237 165.835 87.9502 165.619C88.4767 165.397 89.0309 164.996 89.6128 164.414H89.8622V168.977C89.4853 169.238 88.9671 169.474 88.3076 169.684C87.6537 169.895 86.9471 170 86.1878 170Z" fill="white"/>
<path d="M96.0388 170C95.1853 170 94.4011 169.861 93.6862 169.584C92.9713 169.307 92.3727 168.93 91.8906 168.454C91.4084 167.972 91.0343 167.409 90.7683 166.766C90.5023 166.123 90.3693 165.436 90.3693 164.705C90.3693 164.123 90.4524 163.566 90.6187 163.034C90.7905 162.496 91.0399 162.006 91.3669 161.562C91.6938 161.119 92.0846 160.734 92.539 160.407C92.9934 160.08 93.5199 159.828 94.1185 159.65C94.717 159.467 95.3571 159.376 96.0388 159.376C96.8757 159.376 97.6488 159.517 98.3582 159.8C99.0731 160.082 99.6716 160.465 100.154 160.947C100.636 161.424 101.013 161.989 101.284 162.643C101.556 163.291 101.692 163.979 101.692 164.705C101.692 165.436 101.559 166.123 101.293 166.766C101.032 167.409 100.664 167.972 100.187 168.454C99.7104 168.93 99.1146 169.307 98.3997 169.584C97.6848 169.861 96.8978 170 96.0388 170ZM94.5425 165.86C94.9249 166.121 95.4236 166.251 96.0388 166.251C96.654 166.251 97.1555 166.121 97.5435 165.86C97.937 165.6 98.1337 165.214 98.1337 164.705C98.1337 164.195 97.937 163.81 97.5435 163.549C97.1555 163.283 96.654 163.15 96.0388 163.15C95.4347 163.15 94.9387 163.283 94.5508 163.549C94.1628 163.81 93.9689 164.195 93.9689 164.705C93.9689 165.214 94.1601 165.6 94.5425 165.86Z" fill="white"/>
<path d="M106.181 169.792H102.199V159.575H106.231L105.591 165.386H105.757C105.99 163.164 106.38 161.607 106.929 160.714C107.483 159.822 108.353 159.376 109.539 159.376C110.553 159.376 111.332 159.739 111.875 160.465C112.418 161.191 112.69 162.36 112.69 163.973V169.792H108.7V166.168C108.7 165.902 108.697 165.683 108.691 165.511C108.686 165.334 108.672 165.134 108.65 164.912C108.628 164.685 108.592 164.502 108.542 164.364C108.497 164.22 108.436 164.081 108.359 163.948C108.281 163.815 108.179 163.718 108.051 163.657C107.924 163.591 107.777 163.557 107.611 163.557C107.4 163.557 107.214 163.599 107.054 163.682C106.898 163.765 106.768 163.898 106.663 164.081C106.558 164.258 106.472 164.455 106.405 164.671C106.344 164.887 106.297 165.167 106.264 165.511C106.231 165.849 106.208 166.179 106.197 166.5C106.186 166.822 106.181 167.215 106.181 167.681V169.792Z" fill="white"/>
<path d="M119.631 169.144C119.011 169.715 118.182 170 117.146 170C116.109 170 115.303 169.684 114.727 169.052C114.15 168.415 113.862 167.573 113.862 166.525V161.978H112.773V159.7C113.488 159.7 114.012 159.564 114.344 159.293C114.682 159.016 114.851 158.542 114.851 157.871H117.877V159.575H119.631V162.302L117.877 162.028V165.278C117.877 165.655 117.941 165.946 118.068 166.151C118.196 166.356 118.418 166.459 118.734 166.459C119.005 166.459 119.235 166.315 119.423 166.026H119.631V169.144Z" fill="white"/>
<path d="M124.303 169.792H120.321V159.575H124.353L123.713 165.386H123.879C123.974 164.217 124.118 163.241 124.312 162.46C124.506 161.679 124.76 161.063 125.076 160.615C125.398 160.16 125.758 159.841 126.157 159.659C126.562 159.47 127.047 159.376 127.612 159.376V164.023H127.387C127.088 163.724 126.714 163.574 126.265 163.574C125.661 163.574 125.182 163.843 124.827 164.38C124.478 164.918 124.303 165.735 124.303 166.833V169.792Z" fill="white"/>
<path d="M133.614 170C132.76 170 131.976 169.861 131.261 169.584C130.546 169.307 129.948 168.93 129.466 168.454C128.984 167.972 128.609 167.409 128.343 166.766C128.077 166.123 127.944 165.436 127.944 164.705C127.944 164.123 128.028 163.566 128.194 163.034C128.366 162.496 128.615 162.006 128.942 161.562C129.269 161.119 129.66 160.734 130.114 160.407C130.569 160.08 131.095 159.828 131.694 159.65C132.292 159.467 132.932 159.376 133.614 159.376C134.451 159.376 135.224 159.517 135.933 159.8C136.648 160.082 137.247 160.465 137.729 160.947C138.211 161.424 138.588 161.989 138.859 162.643C139.131 163.291 139.267 163.979 139.267 164.705C139.267 165.436 139.134 166.123 138.868 166.766C138.607 167.409 138.239 167.972 137.762 168.454C137.286 168.93 136.69 169.307 135.975 169.584C135.26 169.861 134.473 170 133.614 170ZM132.118 165.86C132.5 166.121 132.999 166.251 133.614 166.251C134.229 166.251 134.731 166.121 135.119 165.86C135.512 165.6 135.709 165.214 135.709 164.705C135.709 164.195 135.512 163.81 135.119 163.549C134.731 163.283 134.229 163.15 133.614 163.15C133.01 163.15 132.514 163.283 132.126 163.549C131.738 163.81 131.544 164.195 131.544 164.705C131.544 165.214 131.735 165.6 132.118 165.86Z" fill="white"/>
<path d="M143.789 169.792H139.774V157.023H143.789V169.792Z" fill="white"/>
</svg>
