<svg width="45" height="45" viewBox="0 0 45 45" fill="none" xmlns="http://www.w3.org/2000/svg">
<path d="M17.6011 23.293H14.0776V22.4229H17.6011V23.293ZM18.7773 20.4839C18.7773 19.1304 19.873 18.1206 21.334 18.1206C22.7197 18.1206 23.8101 19.0605 23.8101 20.2476C23.8101 21.1123 23.418 21.7568 22.1235 23.0942L20.1631 25.1191V25.1406H23.939V26H18.8257V25.334L21.5542 22.4604C22.5962 21.3647 22.8433 20.9512 22.8433 20.3066C22.8433 19.5601 22.1611 18.9639 21.3071 18.9639C20.3994 18.9639 19.7119 19.6191 19.7119 20.4839V20.4893H18.7773V20.4839ZM27.1509 26.0967C25.7275 26.0967 24.7607 24.958 24.7607 23.207C24.7607 21.4561 25.7222 20.3174 27.1294 20.3174C27.9297 20.3174 28.5742 20.7095 28.9072 21.3218H28.9287V18.2495H29.8633V26H28.9717V25.0547H28.9556C28.5957 25.6992 27.9565 26.0967 27.1509 26.0967ZM27.3281 21.1392C26.3398 21.1392 25.7168 21.9448 25.7168 23.207C25.7168 24.4746 26.3398 25.2749 27.3281 25.2749C28.2896 25.2749 28.9341 24.4585 28.9341 23.207C28.9341 21.9609 28.2896 21.1392 27.3281 21.1392Z" fill="white"/>
<path opacity="0.1" d="M45 22.5C45 34.9264 34.9264 45 22.5 45C10.0736 45 0 34.9264 0 22.5C0 10.0736 10.0736 0 22.5 0C34.9264 0 45 10.0736 45 22.5ZM6.75 22.5C6.75 31.1985 13.8015 38.25 22.5 38.25C31.1985 38.25 38.25 31.1985 38.25 22.5C38.25 13.8015 31.1985 6.75 22.5 6.75C13.8015 6.75 6.75 13.8015 6.75 22.5Z" fill="white"/>
<path d="M41.9856 11.25C41.4632 10.3452 40.8784 9.4779 40.2355 8.65437L34.9149 12.8081C35.3649 13.3845 35.7742 13.9916 36.1399 14.625L41.9856 11.25Z" fill="#DA6157"/>
<path d="M28.3234 44.2333C29.3858 43.9487 30.4259 43.5865 31.4354 43.1497L28.7547 36.9548C28.0481 37.2605 27.3201 37.5141 26.5764 37.7133L28.3234 44.2333Z" fill="#DA6157"/>
</svg>
