<svg width="45" height="45" viewBox="0 0 45 45" fill="none" xmlns="http://www.w3.org/2000/svg">
<path d="M15.4321 26.1343C14.272 26.1343 13.3481 25.5059 12.8701 24.3887C12.6123 23.7925 12.4888 23.0942 12.4888 22.2563C12.4888 19.646 13.6006 18.1152 15.4966 18.1152C16.8125 18.1152 17.8223 18.9048 18.0693 20.124H17.0864C16.877 19.4204 16.2539 18.9692 15.4858 18.9692C14.1914 18.9692 13.4556 20.1187 13.4233 22.1812H13.4395C13.7886 21.4238 14.6426 20.9243 15.604 20.9243C17.0811 20.9243 18.1768 22.0146 18.1768 23.4863C18.1768 25.0171 17.022 26.1343 15.4321 26.1343ZM15.4214 25.2749C16.4097 25.2749 17.1938 24.4961 17.1938 23.5186C17.1938 22.5034 16.4634 21.7729 15.4375 21.7729C14.4116 21.7729 13.6543 22.5034 13.6543 23.4917C13.6543 24.4854 14.4277 25.2749 15.4214 25.2749ZM19.6592 26L23.1665 19.1304V19.1089H18.9932V18.2495H24.1226V19.1465L20.6743 26H19.6592ZM28.124 20.0811C28.124 21.252 27.4795 22.0093 26.4966 22.0093C25.5137 22.0093 24.8691 21.252 24.8691 20.0811C24.8691 18.9102 25.5137 18.1528 26.4966 18.1528C27.4795 18.1528 28.124 18.9102 28.124 20.0811ZM26.4966 21.354C26.9692 21.354 27.2646 20.8706 27.2646 20.0811C27.2646 19.2915 26.9692 18.8081 26.4966 18.8081C26.0239 18.8081 25.7285 19.2915 25.7285 20.0811C25.7285 20.8706 26.0239 21.354 26.4966 21.354ZM26.2603 26H25.3257L28.3174 21.9126L30.9976 18.2495H31.9214L29.0103 22.2349L26.2603 26ZM32.3833 24.1523C32.3833 25.3232 31.7388 26.0806 30.7559 26.0806C29.7729 26.0806 29.1284 25.3232 29.1284 24.1523C29.1284 22.9814 29.7729 22.2241 30.7559 22.2241C31.7388 22.2241 32.3833 22.9814 32.3833 24.1523ZM30.7559 25.4253C31.2285 25.4253 31.5239 24.9419 31.5239 24.1523C31.5239 23.3628 31.2285 22.8794 30.7559 22.8794C30.2832 22.8794 29.9878 23.3628 29.9878 24.1523C29.9878 24.9419 30.2832 25.4253 30.7559 25.4253Z" fill="white"/>
<path opacity="0.1" d="M45 22.5C45 34.9264 34.9264 45 22.5 45C10.0736 45 0 34.9264 0 22.5C0 10.0736 10.0736 0 22.5 0C34.9264 0 45 10.0736 45 22.5ZM6.75 22.5C6.75 31.1985 13.8015 38.25 22.5 38.25C31.1985 38.25 38.25 31.1985 38.25 22.5C38.25 13.8015 31.1985 6.75 22.5 6.75C13.8015 6.75 6.75 13.8015 6.75 22.5Z" fill="white"/>
<path d="M22.5 0C26.4496 4.70982e-08 30.3296 1.03964 33.75 3.01443C37.1704 4.98922 40.0108 7.82957 41.9856 11.25C43.9604 14.6704 45 18.5504 45 22.5C45 26.4496 43.9604 30.3296 41.9856 33.75C40.0108 37.1704 37.1704 40.0108 33.75 41.9856C30.3296 43.9604 26.4496 45 22.5 45C18.5504 45 14.6704 43.9604 11.25 41.9856C7.82957 40.0108 4.98921 37.1704 3.01443 33.75L8.8601 30.375C10.2424 32.7693 12.2307 34.7575 14.625 36.1399C17.0193 37.5223 19.7353 38.25 22.5 38.25C25.2647 38.25 27.9807 37.5223 30.375 36.1399C32.7693 34.7575 34.7575 32.7693 36.1399 30.375C37.5223 27.9807 38.25 25.2647 38.25 22.5C38.25 19.7353 37.5223 17.0193 36.1399 14.625C34.7575 12.2307 32.7693 10.2425 30.375 8.8601C27.9807 7.47775 25.2647 6.75 22.5 6.75V0Z" fill="#FEBB64"/>
</svg>
