<svg width="36" height="36" viewBox="0 0 36 36" fill="none" xmlns="http://www.w3.org/2000/svg">
<g clip-path="url(#clip0_178_2531)">
<path fill-rule="evenodd" clip-rule="evenodd" d="M3 11.7C3 9.17976 3 7.91965 3.49047 6.95704C3.9219 6.11031 4.61031 5.4219 5.45704 4.99047C6.41965 4.5 7.67976 4.5 10.2 4.5H25.8C28.3202 4.5 29.5804 4.5 30.543 4.99047C31.3897 5.4219 32.0781 6.11031 32.5095 6.95704C33 7.91965 33 9.17976 33 11.7V24.3C33 26.8202 33 28.0804 32.5095 29.043C32.0781 29.8897 31.3897 30.5781 30.543 31.0095C29.5804 31.5 28.3202 31.5 25.8 31.5H10.2C7.67976 31.5 6.41965 31.5 5.45704 31.0095C4.61031 30.5781 3.9219 29.8897 3.49047 29.043C3 28.0804 3 26.8202 3 24.3V11.7ZM6 14.4C6 13.5599 6 13.1399 6.16349 12.819C6.3073 12.5368 6.53677 12.3073 6.81901 12.1635C7.13988 12 7.55992 12 8.4 12H27.6C28.4401 12 28.8601 12 29.181 12.1635C29.4632 12.3073 29.6927 12.5368 29.8365 12.819C30 13.1399 30 13.5599 30 14.4V26.1C30 26.9401 30 27.3601 29.8365 27.681C29.6927 27.9632 29.4632 28.1927 29.181 28.3365C28.8601 28.5 28.4401 28.5 27.6 28.5H8.4C7.55992 28.5 7.13988 28.5 6.81901 28.3365C6.53677 28.1927 6.3073 27.9632 6.16349 27.681C6 27.3601 6 26.9401 6 26.1V14.4ZM15.75 9.75C16.5784 9.75 17.25 9.07843 17.25 8.25C17.25 7.42157 16.5784 6.75 15.75 6.75C14.9216 6.75 14.25 7.42157 14.25 8.25C14.25 9.07843 14.9216 9.75 15.75 9.75ZM13.125 8.25C13.125 9.07843 12.4534 9.75 11.625 9.75C10.7966 9.75 10.125 9.07843 10.125 8.25C10.125 7.42157 10.7966 6.75 11.625 6.75C12.4534 6.75 13.125 7.42157 13.125 8.25ZM7.5 9.75C8.32843 9.75 9 9.07843 9 8.25C9 7.42157 8.32843 6.75 7.5 6.75C6.67157 6.75 6 7.42157 6 8.25C6 9.07843 6.67157 9.75 7.5 9.75Z" fill="#7F7F7F"/>
</g>
<defs>
<clipPath id="clip0_178_2531">
<rect width="36" height="36" fill="white"/>
</clipPath>
</defs>
</svg>
