<svg width="24" height="24" viewBox="0 0 24 24" fill="none" xmlns="http://www.w3.org/2000/svg">
<g clip-path="url(#clip0_178_5850)">
<path fill-rule="evenodd" clip-rule="evenodd" d="M3.25 12C3.25 11.3096 3.80964 10.75 4.5 10.75H16.4822L11.6161 5.88388C11.128 5.39573 11.128 4.60427 11.6161 4.11612C12.1043 3.62796 12.8957 3.62796 13.3839 4.11612L20.3839 11.1161C20.872 11.6043 20.872 12.3957 20.3839 12.8839L13.3839 19.8839C12.8957 20.372 12.1043 20.372 11.6161 19.8839C11.128 19.3957 11.128 18.6043 11.6161 18.1161L16.4822 13.25L4.5 13.25C3.80964 13.25 3.25 12.6904 3.25 12Z" fill="url(#paint0_linear_178_5850)"/>
</g>
<defs>
<linearGradient id="paint0_linear_178_5850" x1="20.75" y1="12" x2="3.25" y2="12" gradientUnits="userSpaceOnUse">
<stop stop-color="white"/>
<stop offset="1" stop-color="white" stop-opacity="0"/>
</linearGradient>
<clipPath id="clip0_178_5850">
<rect width="24" height="24" fill="white"/>
</clipPath>
</defs>
</svg>
