<svg width="24" height="24" viewBox="0 0 24 24" fill="none" xmlns="http://www.w3.org/2000/svg">
<g clip-path="url(#clip0_178_2547)">
<path fill-rule="evenodd" clip-rule="evenodd" d="M20.75 12C20.75 11.3096 20.1904 10.75 19.5 10.75H7.51777L12.3839 5.88388C12.872 5.39573 12.872 4.60427 12.3839 4.11612C11.8957 3.62796 11.1043 3.62796 10.6161 4.11612L3.61612 11.1161C3.12796 11.6043 3.12796 12.3957 3.61612 12.8839L10.6161 19.8839C11.1043 20.372 11.8957 20.372 12.3839 19.8839C12.872 19.3957 12.872 18.6043 12.3839 18.1161L7.51777 13.25L19.5 13.25C20.1904 13.25 20.75 12.6904 20.75 12Z" fill="url(#paint0_linear_178_2547)"/>
</g>
<defs>
<linearGradient id="paint0_linear_178_2547" x1="3.25" y1="12" x2="20.75" y2="12" gradientUnits="userSpaceOnUse">
<stop stop-color="white"/>
<stop offset="1" stop-color="white" stop-opacity="0"/>
</linearGradient>
<clipPath id="clip0_178_2547">
<rect width="24" height="24" fill="white" transform="matrix(-1 0 0 1 24 0)"/>
</clipPath>
</defs>
</svg>
