<svg width="36" height="36" viewBox="0 0 36 36" fill="none" xmlns="http://www.w3.org/2000/svg">
<path d="M19.8 6H10.2C7.67976 6 6.41965 6 5.45704 6.49047C4.61031 6.9219 3.9219 7.61031 3.49047 8.45704C3 9.41965 3 10.6798 3 13.2V22.8C3 25.3202 3 26.5804 3.49047 27.543C3.9219 28.3897 4.61031 29.0781 5.45704 29.5095C6.41965 30 7.67976 30 10.2 30H19.8C22.3202 30 23.5804 30 24.543 29.5095C25.3897 29.0781 26.0781 28.3897 26.5095 27.543C27 26.5804 27 25.3202 27 22.8V21.75L32.6118 25.6783C33.2229 26.106 33.5285 26.3199 33.7828 26.3088C34.0043 26.2991 34.2101 26.1919 34.345 26.0161C34.5 25.8141 34.5 25.4411 34.5 24.6952V11.3048C34.5 10.5589 34.5 10.1859 34.345 9.98395C34.2101 9.80807 34.0043 9.7009 33.7828 9.69121C33.5285 9.68008 33.2229 9.89396 32.6118 10.3217L27 14.25V13.2C27 10.6798 27 9.41965 26.5095 8.45704C26.0781 7.61031 25.3897 6.9219 24.543 6.49047C23.5804 6 22.3202 6 19.8 6Z" fill="#7F7F7F"/>
</svg>
