<svg width="36" height="36" viewBox="0 0 36 36" fill="none" xmlns="http://www.w3.org/2000/svg">
<g clip-path="url(#clip0_178_2525)">
<path fill-rule="evenodd" clip-rule="evenodd" d="M18 34.125C26.9056 34.125 34.125 26.9056 34.125 18C34.125 9.09441 26.9056 1.875 18 1.875C9.09441 1.875 1.875 9.09441 1.875 18C1.875 26.9056 9.09441 34.125 18 34.125ZM12.9696 21.384L14.8902 18.183C15.3504 17.416 15.5805 17.0324 15.8608 16.691C16.1098 16.3878 16.3878 16.1098 16.691 15.8608C17.0324 15.5805 17.416 15.3504 18.183 14.8902L21.384 12.9696C22.5932 12.2441 23.1977 11.8814 23.5026 11.9609C23.7654 12.0294 23.9706 12.2346 24.0391 12.4974C24.1186 12.8023 23.7559 13.4068 23.0304 14.616L21.1098 17.817C20.6496 18.584 20.4195 18.9676 20.1392 19.309C19.8902 19.6122 19.6122 19.8902 19.309 20.1392C18.9676 20.4195 18.584 20.6496 17.817 21.1098L14.616 23.0304C13.4068 23.7559 12.8023 24.1186 12.4974 24.0391C12.2346 23.9706 12.0294 23.7654 11.9609 23.5026C11.8814 23.1977 12.2441 22.5932 12.9696 21.384Z" fill="#7F7F7F"/>
</g>
<defs>
<clipPath id="clip0_178_2525">
<rect width="36" height="36" fill="white"/>
</clipPath>
</defs>
</svg>
