<svg width="36" height="36" viewBox="0 0 36 36" fill="none" xmlns="http://www.w3.org/2000/svg">
<path d="M31.0488 4.08752C32.6493 4.55389 33.75 6.02112 33.75 7.68811V10.9449C33.75 12.7653 32.142 14.1661 30.3389 13.9166L27.833 13.5699V29.6813C27.8329 32.1665 25.8182 34.1813 23.333 34.1813H12.667C10.1818 34.1813 8.1671 32.1665 8.16699 29.6813V13.5699L5.66113 13.9166C3.85808 14.1661 2.2501 12.7652 2.25 10.9449V7.68811C2.25 6.02109 3.35071 4.55388 4.95117 4.08752L12.21 1.97229L12.7979 2.9928C13.8366 4.79363 15.7784 6.00061 18 6.00061C20.2216 6.00061 22.1634 4.79361 23.2021 2.9928L23.79 1.97229L31.0488 4.08752Z" fill="#7F7F7F"/>
</svg>
