<svg width="36" height="36" viewBox="0 0 36 36" fill="none" xmlns="http://www.w3.org/2000/svg">
<g clip-path="url(#clip0_178_2524)">
<path d="M21.9115 0.995853C21.4021 0.438013 20.6468 0.173046 19.9005 0.290417C19.209 0.399176 18.7474 0.876642 18.5484 1.0863C18.2423 1.40881 17.9692 1.76236 17.6917 2.10927L4.85526 18.1548C4.63476 18.4304 4.41 18.7112 4.24677 18.9581C4.09065 19.1942 3.81119 19.6521 3.81055 20.2476C3.80981 20.9328 4.12136 21.581 4.65688 22.0085C5.12227 22.38 5.65437 22.4478 5.9363 22.4734C6.23107 22.5002 6.59076 22.5001 6.94365 22.5L13.5001 22.5L13.5001 32.262C13.5 32.7363 13.5 33.1844 13.53 33.538C13.5544 33.8261 13.6166 34.4873 14.0886 35.0042C14.598 35.562 15.3534 35.827 16.0997 35.7096C16.7912 35.6008 17.2528 35.1234 17.4518 34.9137C17.6961 34.6563 17.976 34.3064 18.2722 33.936L31.1448 17.8452C31.3654 17.5697 31.5901 17.2888 31.7534 17.0419C31.9095 16.8058 32.189 16.3479 32.1896 15.7524C32.1903 15.0672 31.8788 14.419 31.3433 13.9915C30.8779 13.62 30.3458 13.5522 30.0639 13.5266C29.7691 13.4999 29.4094 13.4999 29.0565 13.5L22.5001 13.5L22.5001 3.73799C22.5001 3.26369 22.5002 2.8156 22.4702 2.46201C22.4458 2.17397 22.3836 1.51276 21.9115 0.995853Z" fill="#7F7F7F"/>
</g>
<defs>
<clipPath id="clip0_178_2524">
<rect width="36" height="36" fill="white"/>
</clipPath>
</defs>
</svg>
