<svg width="36" height="36" viewBox="0 0 36 36" fill="none" xmlns="http://www.w3.org/2000/svg">
<path fill-rule="evenodd" clip-rule="evenodd" d="M24 9C24 12.3137 21.3137 15 18 15C14.6863 15 12 12.3137 12 9C12 5.68629 14.6863 3 18 3C21.3137 3 24 5.68629 24 9ZM27 32.25C31.5564 32.25 35.25 28.5564 35.25 24C35.25 19.4437 31.5564 15.75 27 15.75C22.4437 15.75 18.75 19.4437 18.75 24C18.75 28.5564 22.4437 32.25 27 32.25ZM3.75 26.25C3.75 24.0352 6.65706 18.1865 17.4791 18.0044C16.3838 19.74 15.75 21.796 15.75 24C15.75 26.2059 16.3849 28.2635 17.4818 30H7.5C5.25 30 3.75 28.5 3.75 26.25ZM28.5 21C28.5 20.1716 27.8284 19.5 27 19.5C26.1716 19.5 25.5 20.1716 25.5 21V22.5H24C23.1716 22.5 22.5 23.1716 22.5 24C22.5 24.8284 23.1716 25.5 24 25.5H25.5V27C25.5 27.8284 26.1716 28.5 27 28.5C27.8284 28.5 28.5 27.8284 28.5 27V25.5H30C30.8284 25.5 31.5 24.8284 31.5 24C31.5 23.1716 30.8284 22.5 30 22.5H28.5V21Z" fill="#7F7F7F"/>
</svg>
