<svg width="36" height="36" viewBox="0 0 36 36" fill="none" xmlns="http://www.w3.org/2000/svg">
<g clip-path="url(#clip0_178_2526)">
<path d="M1.5 6C1.5 3.51472 3.51472 1.5 6 1.5H18C20.4853 1.5 22.5 3.51472 22.5 6V10.5H18V7.5C18 6.67157 17.3284 6 16.5 6C15.8919 6 15.3684 6.3618 15.1329 6.88186C14.221 6.32249 13.1481 5.99999 12 6C8.68629 6.00003 6 8.6863 6 12V12.5004C6 15.3447 7.9 17.7451 10.5 18.5018V22.5H6C3.51472 22.5 1.5 20.4853 1.5 18V6Z" fill="#7F7F7F"/>
<path fill-rule="evenodd" clip-rule="evenodd" d="M13.5 18C13.5 15.5147 15.5147 13.5 18 13.5H30C32.4853 13.5 34.5 15.5147 34.5 18V30C34.5 32.4853 32.4853 34.5 30 34.5H18C15.5147 34.5 13.5 32.4853 13.5 30V18ZM25.5 18C25.5 17.1716 24.8284 16.5 24 16.5C23.1716 16.5 22.5 17.1716 22.5 18H20.25C19.4216 18 18.75 18.6716 18.75 19.5C18.75 20.3284 19.4216 21 20.25 21H26.1188C25.8873 22.3067 25.358 23.5242 24.5933 24.5686L23.4762 23.6111C22.8472 23.072 21.9003 23.1449 21.3611 23.7738C20.822 24.4028 20.8949 25.3498 21.5238 25.8889L22.413 26.651C21.7232 27.1086 20.9588 27.4714 20.1357 27.7184L19.8194 27.8133C19.0259 28.0513 18.5756 28.8875 18.8137 29.681C19.0517 30.4745 19.8879 30.9248 20.6814 30.6867L20.9977 30.5918C22.3891 30.1744 23.6558 29.5118 24.7566 28.6598L26.7738 30.3889C27.4028 30.928 28.3498 30.8552 28.8889 30.2262C29.428 29.5972 29.3552 28.6503 28.7262 28.1111L26.876 26.5253C28.379 24.5556 29.2504 22.1064 29.2504 19.5C29.2504 18.6716 28.5784 18 27.75 18H25.5Z" fill="#7F7F7F"/>
<path d="M14.8852 11.1754C13.0546 12.0122 11.6192 13.564 10.9361 15.4736C9.79572 14.9691 9 13.8277 9 12.5004V12C9 10.3432 10.3431 9.00001 12 9C13.3709 8.99999 14.527 9.91948 14.8852 11.1754Z" fill="#7F7F7F"/>
</g>
<defs>
<clipPath id="clip0_178_2526">
<rect width="36" height="36" fill="white"/>
</clipPath>
</defs>
</svg>
