<svg width="36" height="36" viewBox="0 0 36 36" fill="none" xmlns="http://www.w3.org/2000/svg">
<g clip-path="url(#clip0_178_2523)">
<path d="M19.5486 33.8891L19.5519 33.8874C21.2406 32.9784 25.1045 30.7143 28.5666 27.3179C32.0126 23.9373 35.25 19.245 35.25 13.5C35.25 8.43926 31.8229 3 25.5 3C22.2937 3 19.753 4.65689 18 7.27227C16.247 4.65689 13.7063 3 10.5 3C4.17711 3 0.75 8.43926 0.75 13.5C0.75 19.245 3.98743 23.9373 7.43345 27.3179C10.8977 30.7164 14.7643 32.9812 16.4513 33.8891L16.5046 33.9179C16.7274 34.0389 17.0501 34.214 17.4605 34.2961C17.8004 34.3641 18.1996 34.3641 18.5395 34.2961C18.9499 34.214 19.2726 34.0389 19.4953 33.918L19.5486 33.8891Z" fill="#7F7F7F"/>
</g>
<defs>
<clipPath id="clip0_178_2523">
<rect width="36" height="36" fill="white"/>
</clipPath>
</defs>
</svg>
