<svg width="36" height="36" viewBox="0 0 36 36" fill="none" xmlns="http://www.w3.org/2000/svg">
<path d="M10.7764 4.16486C10.7767 2.35176 12.5222 1.07257 14.2305 1.57599L14.3955 1.63068L30.04 7.31915C31.1059 7.70675 31.8153 8.72013 31.8154 9.85431V24.575C32.3308 25.504 32.625 26.5731 32.625 27.7108C32.6248 31.2859 29.7266 34.1843 26.1514 34.1844C22.5761 34.1844 19.6779 31.2859 19.6777 27.7108C19.6777 24.1354 22.576 21.2371 26.1514 21.2371C27.0101 21.2371 27.8293 21.4052 28.5791 21.7088V10.2322L14.0127 4.93536V18.1014C14.5281 19.0304 14.8223 20.0994 14.8223 21.2371C14.8222 24.8124 11.9239 27.7108 8.34863 27.7108C4.7734 27.7107 1.87509 24.8123 1.875 21.2371C1.875 17.6618 4.77334 14.7635 8.34863 14.7635C9.20732 14.7635 10.0266 14.9316 10.7764 15.2352V4.16486Z" fill="#9BDA88"/>
</svg>
