<svg width="24" height="24" viewBox="0 0 24 24" fill="none" xmlns="http://www.w3.org/2000/svg">
<g clip-path="url(#clip0_178_5574)">
<path fill-rule="evenodd" clip-rule="evenodd" d="M3.99981 8.00074C3.99981 3.58259 7.5814 -2.50339e-06 11.9998 0C16.4182 2.5034e-06 19.9998 3.5826 19.9998 8.00074V10.8268L21.3797 14.6906C21.5298 15.1107 21.6608 15.4776 21.7449 15.7841C21.8319 16.1012 21.9001 16.458 21.8484 16.8375C21.7386 17.6431 21.244 18.345 20.5223 18.7193C20.1823 18.8956 19.8233 18.9514 19.4955 18.9761C19.1785 19 18.7889 19 18.3429 19L15.9998 19C15.9998 21.2091 14.2089 23 11.9998 23C9.79066 23 7.9998 21.2091 7.9998 19L5.65672 19C5.21072 19 4.82109 19 4.50413 18.9761C4.17632 18.9514 3.81732 18.8956 3.47729 18.7193C2.75559 18.345 2.26097 17.6431 2.15121 16.8375C2.09949 16.458 2.16774 16.1012 2.25469 15.7841C2.33877 15.4776 2.46982 15.1107 2.61984 14.6907L3.99981 10.8268V8.00074ZM9.9998 19C9.9998 20.1046 10.8952 21 11.9998 21C13.1044 21 13.9998 20.1046 13.9998 19H9.9998Z" fill="#FFBB00"/>
</g>
<defs>
<clipPath id="clip0_178_5574">
<rect width="24" height="24" fill="white"/>
</clipPath>
</defs>
</svg>
