<svg width="36" height="36" viewBox="0 0 36 36" fill="none" xmlns="http://www.w3.org/2000/svg">
<g clip-path="url(#clip0_178_2534)">
<path d="M32.25 27.4502C32.25 29.1302 32.2498 29.9706 31.9229 30.6123C31.6353 31.1765 31.1765 31.6353 30.6123 31.9229C29.9706 32.2498 29.1302 32.25 27.4502 32.25H8.5498C6.86978 32.25 6.02941 32.2498 5.3877 31.9229C4.82347 31.6353 4.36472 31.1765 4.07715 30.6123C3.75018 29.9706 3.75 29.1302 3.75 27.4502V17.3955L17.5361 22.9102C17.834 23.0293 18.166 23.0293 18.4639 22.9102L32.25 17.3955V27.4502ZM27.4502 9.75C29.1302 9.75 29.9706 9.75018 30.6123 10.0771C31.1765 10.3647 31.6353 10.8235 31.9229 11.3877C32.2498 12.0294 32.25 12.8698 32.25 14.5498V14.7041L18 20.4043L3.75 14.7041V14.5498C3.75 12.8698 3.75018 12.0294 4.07715 11.3877C4.36472 10.8235 4.82347 10.3647 5.3877 10.0771C6.02941 9.75018 6.86978 9.75 8.5498 9.75H27.4502ZM13.4912 2C15.0537 2 16.427 3.03577 16.8564 4.53809L17.4424 6.58789C17.67 7.38444 17.2087 8.2148 16.4121 8.44238C15.6156 8.66997 14.7852 8.20866 14.5576 7.41211L13.9717 5.3623C13.9102 5.14789 13.7143 5 13.4912 5H10.5088C10.2857 5 10.0898 5.14789 10.0283 5.3623L9.44238 7.41211C9.2148 8.20866 8.38444 8.66997 7.58789 8.44238C6.79134 8.2148 6.33003 7.38444 6.55762 6.58789L7.14355 4.53809C7.573 3.03577 8.94626 2 10.5088 2H13.4912Z" fill="#7F7F7F"/>
</g>
<defs>
<clipPath id="clip0_178_2534">
<rect width="36" height="36" fill="white"/>
</clipPath>
</defs>
</svg>
