<svg width="36" height="36" viewBox="0 0 36 36" fill="none" xmlns="http://www.w3.org/2000/svg">
<g clip-path="url(#clip0_178_2529)">
<path d="M34.0528 16.4633C28.8874 16.0519 25.5456 14.7993 23.3732 12.6268C21.2008 10.4544 19.9482 7.11264 19.5367 1.94726C27.2157 2.67321 33.3268 8.78432 34.0528 16.4633Z" fill="#7F7F7F"/>
<path d="M34.0587 19.4726C28.4554 19.0572 24.1942 17.6905 21.2519 14.7482C18.3096 11.8058 16.9428 7.5447 16.5274 1.94135C8.79702 2.64122 2.64128 8.79696 1.94141 16.5274C7.54477 16.9428 11.8059 18.3095 14.7482 21.2518C17.6905 24.1942 19.0573 28.4553 19.4727 34.0587C27.2031 33.3588 33.3588 27.203 34.0587 19.4726Z" fill="#7F7F7F"/>
<path d="M1.94733 19.5367C2.67328 27.2157 8.78438 33.3268 16.4634 34.0527C16.0519 28.8874 14.7993 25.5456 12.6269 23.3732C10.4545 21.2007 7.11271 19.9481 1.94733 19.5367Z" fill="#7F7F7F"/>
</g>
<defs>
<clipPath id="clip0_178_2529">
<rect width="36" height="36" fill="white"/>
</clipPath>
</defs>
</svg>
