<svg width="36" height="36" viewBox="0 0 36 36" fill="none" xmlns="http://www.w3.org/2000/svg">
<g clip-path="url(#clip0_178_2532)">
<path fill-rule="evenodd" clip-rule="evenodd" d="M6.5888 7.23549C7.36343 4.71793 9.68945 3 12.3235 3H23.6763C26.3103 3 28.6363 4.71794 29.411 7.23549L30.9128 12.1165L33.829 10.6584C34.57 10.2879 35.471 10.5882 35.8415 11.3292C36.212 12.0702 35.9116 12.9712 35.1707 13.3416L32.9838 14.4351C34.3928 15.7312 35.1182 17.6466 34.8747 19.5948L33.7498 28.5934V30C33.7498 31.6569 32.4067 33 30.7498 33H27.421C26.0444 33 24.8445 32.0631 24.5106 30.7276L24.3287 30H11.671L11.4891 30.7276C11.1552 32.0631 9.95528 33 8.57867 33H5.24984C3.59299 33 2.24984 31.6569 2.24984 30V28.5934L1.12501 19.5948C0.881486 17.6466 1.6069 15.7312 3.01587 14.4351L0.82902 13.3416C0.0880521 12.9712 -0.212284 12.0702 0.1582 11.3292C0.528683 10.5882 1.42969 10.2879 2.17066 10.6584L5.08695 12.1165L6.5888 7.23549ZM12.3235 6C11.0065 6 9.84345 6.85897 9.45614 8.11774L8.03083 12.75H27.969L26.5436 8.11774C26.1563 6.85897 24.9933 6 23.6763 6H12.3235ZM6.77025 20.0034C6.90644 19.1863 7.67928 18.6342 8.49644 18.7704L12.9964 19.5204C13.8136 19.6566 14.3656 20.4294 14.2294 21.2466C14.0932 22.0638 13.3204 22.6158 12.5032 22.4796L8.00324 21.7296C7.18608 21.5934 6.63405 20.8206 6.77025 20.0034ZM29.2294 20.0034C29.3656 20.8206 28.8136 21.5934 27.9964 21.7296L23.4964 22.4796C22.6793 22.6158 21.9064 22.0638 21.7702 21.2466C21.6341 20.4294 22.1861 19.6566 23.0032 19.5204L27.5032 18.7704C28.3204 18.6342 29.0932 19.1863 29.2294 20.0034Z" fill="#7F7F7F"/>
</g>
<defs>
<clipPath id="clip0_178_2532">
<rect width="36" height="36" fill="white"/>
</clipPath>
</defs>
</svg>
