<svg width="36" height="36" viewBox="0 0 36 36" fill="none" xmlns="http://www.w3.org/2000/svg">
<g clip-path="url(#clip0_178_2533)">
<path fill-rule="evenodd" clip-rule="evenodd" d="M0.439018 24.1682C0.189243 22.3958 0 20.2955 0 18C0 15.7045 0.189243 13.6042 0.439018 11.8318C0.782773 9.39242 0.95465 8.17275 2.21293 6.92726C3.47121 5.68177 4.75415 5.51432 7.32005 5.17942C10.0823 4.81889 13.7319 4.5 18 4.5C22.2681 4.5 25.9177 4.81889 28.68 5.17942C31.2458 5.51432 32.5288 5.68177 33.7871 6.92726C35.0453 8.17275 35.2172 9.39242 35.561 11.8318C35.8108 13.6042 36 15.7045 36 18C36 20.2955 35.8108 22.3958 35.561 24.1682C35.2172 26.6076 35.0453 27.8273 33.7871 29.0727C32.5288 30.3182 31.2458 30.4857 28.68 30.8206C25.9177 31.1811 22.2681 31.5 18 31.5C13.7319 31.5 10.0823 31.1811 7.32005 30.8206C4.75415 30.4857 3.47121 30.3182 2.21293 29.0727C0.954651 27.8273 0.782773 26.6076 0.439018 24.1682ZM15.3289 13.1255L21.5893 16.978C22.1389 17.3162 22.4137 17.4853 22.5075 17.7027C22.5895 17.8924 22.5895 18.1076 22.5075 18.2973C22.4137 18.5147 22.1389 18.6838 21.5893 19.022L15.3289 22.8745C14.7313 23.2422 14.4326 23.4261 14.1863 23.4051C13.9716 23.3868 13.7751 23.277 13.647 23.1038C13.5 22.905 13.5 22.5542 13.5 21.8525V14.1475C13.5 13.4458 13.5 13.095 13.647 12.8962C13.7751 12.723 13.9716 12.6132 14.1863 12.5949C14.4326 12.5739 14.7313 12.7577 15.3289 13.1255Z" fill="#7F7F7F"/>
</g>
<defs>
<clipPath id="clip0_178_2533">
<rect width="36" height="36" fill="white"/>
</clipPath>
</defs>
</svg>
